HIERARCHY
ROOT Hips
{
	OFFSET -0.001795 -0.223333 0.028219
	CHANNELS 6 Xposition Yposition Zposition Zrotation Yrotation Xrotation 
	JOINT LeftUpLeg
	{
		OFFSET 0.069520 -0.091406 -0.006815
		CHANNELS 3 Zrotation Yrotation Xrotation
		JOINT LeftLeg
		{
			OFFSET 0.034277 -0.375199 -0.004496
			CHANNELS 3 Zrotation Yrotation Xrotation
			JOINT LeftFoot
			{
				OFFSET -0.013596 -0.397961 -0.043693
				CHANNELS 3 Zrotation Yrotation Xrotation
				JOINT LeftToe
				{
					OFFSET 0.026358 -0.055791 0.119288
					CHANNELS 3 Zrotation Yrotation Xrotation
					End Site
					{
						OFFSET 0.000000 0.000000 0.000000
					}
				}
			}
		}
	}
	JOINT RightUpLeg
	{
		OFFSET -0.067670 -0.090522 -0.004320
		CHANNELS 3 Zrotation Yrotation Xrotation
		JOINT RightLeg
		{
			OFFSET -0.038290 -0.382569 -0.008850
			CHANNELS 3 Zrotation Yrotation Xrotation
			JOINT RightFoot
			{
				OFFSET 0.015774 -0.398415 -0.042312
				CHANNELS 3 Zrotation Yrotation Xrotation
				JOINT RightToe
				{
					OFFSET -0.025372 -0.048144 0.123348
					CHANNELS 3 Zrotation Yrotation Xrotation
					End Site
					{
						OFFSET 0.000000 0.000000 0.000000
					}
				}
			}
		}
	}
	JOINT Spine
	{
		OFFSET -0.002533 0.108963 -0.026696
		CHANNELS 3 Zrotation Yrotation Xrotation
		JOINT Spine1
		{
			OFFSET 0.005487 0.135180 0.001092
			CHANNELS 3 Zrotation Yrotation Xrotation
			JOINT Spine2
			{
				OFFSET 0.001457 0.052922 0.025425
				CHANNELS 3 Zrotation Yrotation Xrotation
				JOINT Neck
				{
					OFFSET -0.002778 0.213870 -0.042857
					CHANNELS 3 Zrotation Yrotation Xrotation
					JOINT Head
					{
						OFFSET 0.005152 0.064970 0.051349
						CHANNELS 3 Zrotation Yrotation Xrotation
						End Site
						{
							OFFSET 0.000000 0.000000 0.000000
						}
					}
				}
				JOINT LeftShoulder
				{
					OFFSET 0.078845 0.121749 -0.034090
					CHANNELS 3 Zrotation Yrotation Xrotation
					JOINT LeftArm
					{
						OFFSET 0.090977 0.030469 -0.008868
						CHANNELS 3 Zrotation Yrotation Xrotation
						JOINT LeftForeArm
						{
							OFFSET 0.259612 -0.012772 -0.027456
							CHANNELS 3 Zrotation Yrotation Xrotation
							JOINT LeftHand
							{
								OFFSET 0.249234 0.008986 -0.001171
								CHANNELS 3 Zrotation Yrotation Xrotation
								End Site
								{
									OFFSET 0.000000 0.000000 0.000000
								}
							}
						}
					}
				}
				JOINT RightShoulder
				{
					OFFSET -0.081759 0.118833 -0.038615
					CHANNELS 3 Zrotation Yrotation Xrotation
					JOINT RightArm
					{
						OFFSET -0.096012 0.032551 -0.009143
						CHANNELS 3 Zrotation Yrotation Xrotation
						JOINT RightForeArm
						{
							OFFSET -0.253742 -0.013329 -0.021401
							CHANNELS 3 Zrotation Yrotation Xrotation
							JOINT RightHand
							{
								OFFSET -0.255298 0.007772 -0.005559
								CHANNELS 3 Zrotation Yrotation Xrotation
								End Site
								{
									OFFSET 0.000000 0.000000 0.000000
								}
							}
						}
					}
				}
			}
		}
	}
}
MOTION
Frames: 10
Frame Time: 0.050000
-0.022789 0.954826 -0.033722 -3.481790 16.608649 5.192478 5.659478 -0.337983 0.552320 5.834318 0.376793 -13.991943 -4.894315 1.542180 17.320941 0.000000 0.000000 0.000000 -1.691068 0.602829 -7.102537 -3.057495 0.233078 -2.625672 0.314815 -2.090989 12.936113 0.000000 0.000000 0.000000 -0.964215 0.117260 -5.566720 -2.781614 1.529143 -6.520784 7.206915 0.198826 0.297824 -7.603701 6.176650 -19.800908 0.000000 0.000000 0.000000 1.318466 0.128615 0.174940 -31.674593 -26.669685 2.659708 76.090209 -19.095253 -16.573263 0.000000 0.000000 0.000000 -7.222903 16.766721 5.138805 30.622734 61.166045 14.589774 -77.449380 59.245111 -42.671234 0.000000 0.000000 0.000000 
-0.023623 0.955055 -0.034317 -3.614286 16.922621 5.092933 5.897827 -0.363860 0.397001 5.684816 0.362592 -13.834152 -4.748942 1.733518 17.175143 0.000000 0.000000 0.000000 -1.591620 0.621632 -7.313513 -3.004360 0.242693 -2.422889 0.639253 -1.436141 13.018014 0.000000 0.000000 0.000000 -1.260875 0.106733 -5.517390 -2.642438 1.472739 -6.311202 7.156930 -0.098438 0.254978 -7.229168 5.974629 -19.557498 0.000000 0.000000 0.000000 1.581337 0.519958 0.101574 -31.443514 -26.071665 2.492827 75.374192 -19.682433 -16.771422 0.000000 0.000000 0.000000 -7.448024 16.166810 4.921950 31.587648 61.161226 15.126667 -78.900980 59.649699 -44.086657 0.000000 0.000000 0.000000 
-0.024600 0.955470 -0.034992 -3.744418 17.255492 5.033621 6.010064 -0.378827 0.309122 5.681174 0.354667 -13.748152 -4.837688 1.673893 17.214076 0.000000 0.000000 0.000000 -1.531946 0.625918 -7.347561 -2.941139 0.232476 -2.503557 0.765258 -1.148745 13.038656 0.000000 0.000000 0.000000 -1.609954 0.094491 -5.463318 -2.569154 1.446854 -6.266837 7.031132 -0.412784 0.233088 -7.024024 5.860797 -19.217750 0.000000 0.000000 0.000000 1.984242 0.927844 0.050114 -31.297708 -25.952734 2.440270 74.890178 -20.497965 -17.207336 0.000000 0.000000 0.000000 -7.464025 15.629791 4.755754 31.846234 60.482129 14.988554 -78.966938 60.620883 -44.982138 0.000000 0.000000 0.000000 
-0.025513 0.955513 -0.035789 -3.909940 17.629157 5.004579 6.287654 -0.407297 0.264096 5.600769 0.346966 -13.725655 -4.802208 1.766343 17.188045 0.000000 0.000000 0.000000 -1.358740 0.646316 -7.501670 -2.924755 0.226656 -2.594445 0.947229 -0.765789 13.141582 0.000000 0.000000 0.000000 -1.842648 0.085787 -5.358562 -2.493544 1.429514 -6.493182 6.781540 -0.780535 0.490413 -6.703898 5.696633 -18.922368 0.000000 0.000000 0.000000 2.571011 1.429766 0.006521 -31.214276 -25.819484 2.364314 74.410927 -21.182399 -17.555429 0.000000 0.000000 0.000000 -7.581499 14.911144 4.516281 31.821314 59.635745 14.631783 -78.268666 61.300992 -45.010504 0.000000 0.000000 0.000000 
-0.026271 0.955686 -0.036758 -4.002513 17.796200 4.915324 6.378923 -0.418239 0.160673 5.644584 0.341370 -13.601957 -4.877232 1.792357 17.409244 0.000000 0.000000 0.000000 -1.398584 0.652099 -7.639759 -2.812314 0.222754 -2.483491 0.948790 -0.750207 13.187209 0.000000 0.000000 0.000000 -1.921558 0.082753 -5.007010 -2.501245 1.446383 -6.829943 6.504267 -0.867974 0.763528 -6.421678 5.567087 -18.999277 0.000000 0.000000 0.000000 2.769472 1.860070 -0.080026 -31.187963 -25.735214 2.313728 74.103040 -22.007046 -18.108544 0.000000 0.000000 0.000000 -7.858452 14.245852 4.272023 31.206426 58.283717 13.822037 -77.388699 62.313921 -45.110245 0.000000 0.000000 0.000000 
-0.026862 0.955519 -0.037928 -4.039709 18.071991 4.822338 6.361873 -0.421443 0.067282 5.592576 0.331949 -13.476074 -4.920257 1.743659 17.350605 0.000000 0.000000 0.000000 -1.355362 0.663418 -7.789516 -2.826090 0.231723 -2.387870 0.948548 -0.688908 13.083339 0.000000 0.000000 0.000000 -1.929672 0.080902 -4.667127 -2.506717 1.458609 -7.022647 6.132855 -1.100438 1.095073 -6.162891 5.444467 -18.983060 0.000000 0.000000 0.000000 3.041374 2.224059 -0.134486 -31.169353 -25.763816 2.283538 74.178539 -22.490604 -18.504917 0.000000 0.000000 0.000000 -7.930997 13.633849 4.071317 30.245351 57.108710 12.889774 -76.130315 62.731960 -44.432903 0.000000 0.000000 0.000000 
-0.027398 0.955534 -0.039153 -4.094304 18.109874 4.826058 6.376326 -0.425693 -0.058441 5.586035 0.329017 -13.402703 -4.910294 1.809857 17.442833 0.000000 0.000000 0.000000 -1.348421 0.673257 -7.926215 -2.829310 0.226217 -2.481065 1.080050 -0.418221 13.015695 0.000000 0.000000 0.000000 -1.856783 0.082533 -4.450653 -2.481704 1.451949 -7.111875 5.819618 -1.221185 1.356069 -5.999404 5.369580 -19.349717 0.000000 0.000000 0.000000 3.217215 2.508193 -0.183883 -31.229115 -25.461305 2.200190 74.168412 -23.230474 -19.041191 0.000000 0.000000 0.000000 -8.252723 13.150704 3.887078 29.451058 55.874728 12.065338 -75.891697 63.279652 -44.642667 0.000000 0.000000 0.000000 
-0.027941 0.955409 -0.040180 -4.130258 18.478878 4.834532 6.391178 -0.434282 -0.167162 5.445929 0.320445 -13.390876 -5.134682 1.547418 17.458715 0.000000 0.000000 0.000000 -1.126185 0.695862 -8.058920 -2.970582 0.245783 -2.442213 0.977823 -0.463851 12.587233 0.000000 0.000000 0.000000 -1.770282 0.082049 -4.248930 -2.440287 1.442783 -7.171088 5.424741 -1.526338 1.589527 -5.866311 5.305582 -19.226770 0.000000 0.000000 0.000000 3.166652 2.701150 -0.250532 -31.218815 -25.485865 2.188456 74.486320 -23.895595 -19.638803 0.000000 0.000000 0.000000 -7.808319 12.646985 3.781052 28.410352 54.699753 11.134454 -76.001088 64.119096 -45.374087 0.000000 0.000000 0.000000 
-0.028526 0.955468 -0.040989 -4.163590 18.462430 4.847631 6.326077 -0.431963 -0.308627 5.486510 0.317750 -13.269853 -5.128730 1.534497 17.415409 0.000000 0.000000 0.000000 -1.040804 0.707654 -8.134629 -2.929181 0.248962 -2.322966 0.934591 -0.463469 12.174874 0.000000 0.000000 0.000000 -1.627112 0.084296 -4.021659 -2.410223 1.431714 -7.212983 5.186159 -1.575915 1.856170 -5.968435 5.375296 -19.608795 0.000000 0.000000 0.000000 3.127580 3.011170 -0.348543 -31.124002 -25.572372 2.181302 74.782091 -24.871309 -20.461491 0.000000 0.000000 0.000000 -7.831235 12.234707 3.649722 28.054057 53.653400 10.621607 -77.294109 64.893377 -46.944201 0.000000 0.000000 0.000000 
-0.029258 0.955582 -0.041595 -4.146394 18.605895 4.753374 6.256822 -0.428747 -0.378013 5.576679 0.305823 -12.930797 -5.370262 1.090201 17.183771 0.000000 0.000000 0.000000 -0.938910 0.707585 -8.049621 -2.926980 0.254317 -2.251360 0.800115 -0.649661 11.911070 0.000000 0.000000 0.000000 -1.488548 0.083450 -3.724564 -2.270395 1.387295 -7.386830 4.806801 -1.604458 2.135033 -5.857118 5.344748 -19.911127 0.000000 0.000000 0.000000 3.330968 3.047639 -0.313296 -31.214267 -25.845375 2.221546 75.210423 -25.637114 -21.261285 0.000000 0.000000 0.000000 -7.672303 12.035447 3.595449 27.566362 52.863772 10.160824 -77.844410 65.109193 -47.450280 0.000000 0.000000 0.000000 
